<svg xmlns="http://www.w3.org/2000/svg" viewBox="0 0 400 260" fill="none">
  <defs>
    <linearGradient id="qbg" x1="0" y1="0" x2="1" y2="1"><stop offset="0%" stop-color="#1e3a5f"/><stop offset="100%" stop-color="#0f2744"/></linearGradient>
    <linearGradient id="qcgrad" x1="0" y1="0" x2="0" y2="1"><stop offset="0%" stop-color="#10b981"/><stop offset="100%" stop-color="#059669"/></linearGradient>
  </defs>
  <rect width="400" height="260" rx="12" fill="url(#qbg)"/>
  <!-- Grid pattern -->
  <path d="M0 60h400M0 120h400M0 180h400M80 0v260M160 0v260M240 0v260M320 0v260" stroke="#2d4a6f" stroke-width="0.5" opacity="0.4"/>
  <!-- Title -->
  <text x="200" y="35" text-anchor="middle" font-family="Arial,sans-serif" font-size="14" font-weight="bold" fill="#10b981" letter-spacing="3">QUALITY CONTROL</text>
  <!-- Clipboard / Checklist -->
  <rect x="90" y="55" width="140" height="180" rx="8" fill="#e8f4f0" stroke="#10b981" stroke-width="2"/>
  <rect x="105" y="45" width="110" height="20" rx="4" fill="url(#qcgrad)"/>
  <circle cx="115" cy="55" r="5" fill="white" opacity="0.7"/>
  <line x1="130" y1="52" x2="200" y2="52" stroke="white" stroke-width="1.5" opacity="0.6"/>
  <line x1="130" y1="58" x2="180" y2="58" stroke="white" stroke-width="1.5" opacity="0.6"/>
  <!-- Check items -->
  <rect x="108" y="78" width="104" height="22" rx="4" fill="white" stroke="#10b981" stroke-width="1"/>
  <polyline points="116,89 122,95 136,82" stroke="#10b981" stroke-width="2.5" fill="none" stroke-linecap="round" stroke-linejoin="round"/>
  <text x="146" y="93" font-family="Arial,sans-serif" font-size="9" fill="#374151">Visual Inspection</text>
  
  <rect x="108" y="108" width="104" height="22" rx="4" fill="white" stroke="#10b981" stroke-width="1"/>
  <polyline points="116,119 122,125 136,112" stroke="#10b981" stroke-width="2.5" fill="none" stroke-linecap="round" stroke-linejoin="round"/>
  <text x="146" y="123" font-family="Arial,sans-serif" font-size="9" fill="#374151">Dimension Check</text>

  <rect x="138" y="138" width="74" height="22" rx="4" fill="white" stroke="#10b981" stroke-width="1"/>
  <polyline points="146,149 152,155 166,142" stroke="#10b981" stroke-width="2.5" fill="none" stroke-linecap="round" stroke-linejoin="round"/>
  <text x="174" y="153" font-family="Arial,sans-serif" font-size="9" fill="#374151">RFID Test</text>

  <rect x="108" y="168" width="104" height="22" rx="4" fill="white" stroke="#10b981" stroke-width="1"/>
  <polyline points="116,179 122,185 136,172" stroke="#10b981" stroke-width="2.5" fill="none" stroke-linecap="round" stroke-linejoin="round"/>
  <text x="146" y="183" font-family="Arial,sans-serif" font-size="9" fill="#374151">Load Testing</text>
  
  <rect x="108" y="198" width="104" height="22" rx="4" fill="white" stroke="#10b981" stroke-width="1"/>
  <polyline points="116,209 122,215 136,202" stroke="#10b981" stroke-width="2.5" fill="none" stroke-linecap="round" stroke-linejoin="round"/>
  <text x="146" y="213" font-family="Arial,sans-serif" font-size="9" fill="#374151">Final QC Sign-off</text>

  <!-- Magnifying glass -->
  <circle cx="295" cy="145" r="42" fill="none" stroke="#fbbf24" stroke-width="4" opacity="0.8"/>
  <circle cx="295" cy="145" r="32" fill="#fef3c7" opacity="0.25"/>
  <line x1="326" y1="176" x2="350" y2="200" stroke="#fbbf24" stroke-width="5" stroke-linecap="round" opacity="0.8"/>
  <!-- Magnifying checkmark -->
  <polyline points="278,145 290,158 312,132" stroke="#10b981" stroke-width="4" fill="none" stroke-linecap="round" stroke-linejoin="round"/>

  <!-- Stamp -->
  <rect x="255" y="195" width="100" height="34" rx="4" fill="#10b981" opacity="0.15" stroke="#10b981" stroke-width="1.5" stroke-dasharray="4 2"/>
  <text x="305" y="212" text-anchor="middle" font-family="Arial,sans-serif" font-size="11" font-weight="bold" fill="#10b981">✓ PASSED</text>
  <text x="305" y="224" text-anchor="middle" font-family="Arial,sans-serif" font-size="7" fill="#10b981" opacity="0.7">100% Quality</text>

  <!-- Decorative dots -->
  <circle cx="30" cy="240" r="3" fill="#10b981" opacity="0.3"/>
  <circle cx="45" cy="235" r="2" fill="#fbbf24" opacity="0.3"/>
  <circle cx="370" cy="30" r="3" fill="#10b981" opacity="0.3"/>
  <circle cx="355" cy="40" r="2" fill="#fbbf24" opacity="0.3"/>
</svg>