<svg xmlns="http://www.w3.org/2000/svg" viewBox="0 0 32 32" fill="none">
  <defs>
    <linearGradient id="cr" x1="2" y1="1" x2="30" y2="31" gradientUnits="userSpaceOnUse">
      <stop stop-color="#0a1a4f"/>
      <stop offset="0.35" stop-color="#1e40af"/>
      <stop offset="0.7" stop-color="#2563eb"/>
      <stop offset="1" stop-color="#3b82f6"/>
    </linearGradient>
    <linearGradient id="st" x1="4" y1="5" x2="28" y2="27" gradientUnits="userSpaceOnUse">
      <stop stopColor="#ffffff"/>
      <stop offset="1" stopColor="#c7d2fe"/>
    </linearGradient>
  </defs>

  <!-- 蓝紫水晶菱形 -->
  <polygon points="16,2 30,16 16,30 2,16" fill="url(#cr)" stroke="#3b82f6" stroke-width="0.7" stroke-opacity="0.7"/>

  <!-- 水晶切面 -->
  <path d="M16 2 L16 30" stroke="#fff" stroke-opacity="0.18" stroke-width="0.4"/>
  <path d="M2 16 L30 16" stroke="#fff" stroke-opacity="0.18" stroke-width="0.4"/>
  <path d="M16 2 L22 8 L10 8 Z" fill="#fff" fill-opacity="0.22"/>

  <!-- 主星 -->
  <path d="M12.5 9 L14.3 17 L21.5 19 L14.3 20.8 L12.5 28.5 L10.7 20.8 L4 19 L10.7 17 Z" fill="url(#st)"/>

  <!-- 次星 -->
  <path d="M22 5.5 L23 9 L26.5 10 L23 11 L22 14 L21 11 L17.5 10 L21 9 Z" fill="url(#st)" opacity="0.75"/>
</svg>
