<svg xmlns="http://www.w3.org/2000/svg" viewBox="0 0 640 360">
  <defs>
    <linearGradient id="bg-blog3" x1="0%" y1="0%" x2="100%" y2="100%">
      <stop offset="0%" style="stop-color:#1c1917"/><stop offset="100%" style="stop-color:#44403c"/>
    </linearGradient>
  </defs>
  <rect width="640" height="360" fill="url(#bg-blog3)"/>
  <!-- Gear representations for technical guide -->
  <circle cx="240" cy="170" r="60" fill="none" stroke="#f59e0b" stroke-width="3" opacity="0.6"/>
  <circle cx="240" cy="170" r="40" fill="none" stroke="#f59e0b" stroke-width="2" opacity="0.5"/>
  <circle cx="240" cy="170" r="12" fill="#f59e0b" opacity="0.5"/>
  <!-- Gear teeth -->
  <rect x="230" y="100" width="20" height="12" rx="3" fill="#f59e0b" opacity="0.5"/>
  <rect x="230" y="228" width="20" height="12" rx="3" fill="#f59e0b" opacity="0.5"/>
  <rect x="163" y="160" width="12" height="20" rx="3" fill="#f59e0b" opacity="0.5"/>
  <rect x="305" y="160" width="12" height="20" rx="3" fill="#f59e0b" opacity="0.5"/>
  <rect x="180" y="115" width="14" height="14" rx="3" fill="#f59e0b" opacity="0.4" transform="rotate(45,187,122)"/>
  <rect x="306" y="221" width="14" height="14" rx="3" fill="#f59e0b" opacity="0.4" transform="rotate(45,313,228)"/>
  <rect x="306" y="115" width="14" height="14" rx="3" fill="#f59e0b" opacity="0.4" transform="rotate(-45,313,122)"/>
  <rect x="180" y="221" width="14" height="14" rx="3" fill="#f59e0b" opacity="0.4" transform="rotate(-45,187,228)"/>
  <!-- Second gear (smaller) -->
  <circle cx="400" cy="170" r="35" fill="none" stroke="#fbbf24" stroke-width="2.5" opacity="0.5"/>
  <circle cx="400" cy="170" r="20" fill="none" stroke="#fbbf24" stroke-width="1.5" opacity="0.4"/>
  <circle cx="400" cy="170" r="8" fill="#fbbf24" opacity="0.4"/>
  <!-- Interlocking indication -->
  <line x1="300" y1="170" x2="365" y2="170" stroke="#fbbf24" stroke-width="1" stroke-dasharray="4,3" opacity="0.5"/>
  <!-- Title -->
  <text x="320" y="50" text-anchor="middle" fill="#fbbf24" font-size="24" font-weight="bold" font-family="Arial,sans-serif">TECHNICAL GUIDE</text>
  <text x="320" y="340" text-anchor="middle" fill="#a8a29e" font-size="14" font-family="Arial,sans-serif">How-To · Best Practices · Step-by-Step Tutorials</text>
</svg>
