<svg xmlns="http://www.w3.org/2000/svg" viewBox="0 0 640 360">
  <defs>
    <linearGradient id="bg-uc" x1="0%" y1="0%" x2="100%" y2="100%">
      <stop offset="0%" style="stop-color:#064e3b"/><stop offset="100%" style="stop-color:#0f766e"/>
    </linearGradient>
  </defs>
  <rect width="640" height="360" fill="url(#bg-uc)"/>
  <!-- Tool cabinet icon (simplified) -->
  <rect x="220" y="100" width="200" height="160" rx="8" fill="#0d9488" stroke="#2dd4bf" stroke-width="2"/>
  <rect x="220" y="100" width="200" height="28" rx="4" fill="#115e59" stroke="#2dd4bf" stroke-width="1"/>
  <!-- Drawers -->
  <rect x="235" y="140" width="170" height="30" rx="4" fill="#134e4a" stroke="#2dd4bf" stroke-width="1" opacity="0.8"/>
  <rect x="248" y="150" width="40" height="10" rx="2" fill="#2dd4bf" opacity="0.6"/>
  <rect x="235" y="180" width="170" height="30" rx="4" fill="#134e4a" stroke="#2dd4bf" stroke-width="1" opacity="0.8"/>
  <rect x="248" y="190" width="40" height="10" rx="2" fill="#2dd4bf" opacity="0.6"/>
  <rect x="235" y="220" width="170" height="30" rx="4" fill="#134e4a" stroke="#2dd4bf" stroke-width="1" opacity="0.8"/>
  <rect x="248" y="230" width="40" height="10" rx="2" fill="#2dd4bf" opacity="0.6"/>
  <!-- Checkmark overlay -->
  <circle cx="460" cy="120" r="28" fill="#22c55e" opacity="0.9"/>
  <polyline points="445,120 458,135 480,105" fill="none" stroke="white" stroke-width="5" stroke-linecap="round" stroke-linejoin="round"/>
  <!-- Use case label -->
  <rect x="100" y="290" width="440" height="36" rx="6" fill="#0d9488" opacity="0.3" stroke="#2dd4bf" stroke-width="1"/>
  <text x="320" y="313" text-anchor="middle" fill="#2dd4bf" font-size="15" font-family="Arial,sans-serif">Real-World Application · Workflow · Deployment</text>
  <!-- Title -->
  <text x="320" y="60" text-anchor="middle" fill="#2dd4bf" font-size="24" font-weight="bold" font-family="Arial,sans-serif">USE CASE</text>
</svg>
